<svg width="840" height="204" viewBox="0 0 840 204" fill="none" xmlns="http://www.w3.org/2000/svg">
<path d="M297.98 27.3001C302.109 27.2868 306.074 28.9128 309.004 31.8209C311.935 34.729 313.591 38.6815 313.61 42.8101V102.81H297.14V78.4601H254.36V102.79H238.11V42.7901C238.106 40.7513 238.505 38.7318 239.284 36.8476C240.062 34.9634 241.205 33.2516 242.647 31.8105C244.09 30.3693 245.802 29.2272 247.687 28.4498C249.572 27.6723 251.591 27.2748 253.63 27.2801L297.98 27.3001ZM297.14 62.1101V43.6401H254.36V62.1001L297.14 62.1101Z" fill="#E65612"/>
<path d="M322.67 27.24H338.92V86.49H398.16V102.84H322.67V27.24Z" fill="#E65612"/>
<path d="M423.48 43.64V86.42H482.48V102.78H422.73C420.69 102.785 418.67 102.387 416.784 101.609C414.899 100.831 413.186 99.6883 411.744 98.2461C410.302 96.8038 409.159 95.0908 408.381 93.2055C407.603 91.3201 407.205 89.2996 407.21 87.26V42.81C407.206 40.7712 407.605 38.7518 408.383 36.8676C409.162 34.9834 410.305 33.2715 411.747 31.8304C413.19 30.3892 414.902 29.2471 416.787 28.4697C418.671 27.6922 420.691 27.2947 422.73 27.3H482.49V43.64H423.48Z" fill="#E65612"/>
<path d="M553.49 27.3001C557.619 27.2868 561.584 28.9128 564.514 31.8209C567.445 34.729 569.101 38.6815 569.12 42.8101V102.81H552.65V78.4601H509.88V102.79H493.62V42.7901C493.616 40.7513 494.015 38.7318 494.794 36.8476C495.572 34.9634 496.715 33.2516 498.157 31.8105C499.6 30.3693 501.312 29.2272 503.197 28.4498C505.082 27.6723 507.101 27.2748 509.14 27.2801L553.49 27.3001ZM552.65 62.1101V43.6401H509.88V62.1001L552.65 62.1101Z" fill="#E65612"/>
<path d="M652.78 27.3V43.64H623.22V102.78H606.86V43.64H577.29V27.3H652.78Z" fill="#E65612"/>
<path d="M730.58 43.64H677.32V56.85H720.2V73.2101H677.32V86.42H730.58V102.78H660.85V27.3H730.58V43.64Z" fill="#E65612"/>
<path d="M739.23 27.3H755.58V102.79H739.23V27.3Z" fill="#E65612"/>
<path d="M824.1 27.3C826.145 27.2921 828.171 27.6871 830.063 28.4622C831.955 29.2374 833.676 30.3777 835.127 31.8179C836.579 33.2582 837.732 34.9702 838.522 36.8562C839.312 38.7422 839.722 40.7654 839.73 42.8101V102.81H823.27V78.46H780.49V102.79H764.23V42.79C764.229 40.7546 764.629 38.739 765.407 36.8584C766.186 34.9778 767.328 33.2692 768.767 31.8305C770.207 30.3917 771.916 29.251 773.798 28.4736C775.679 27.6962 777.695 27.2974 779.73 27.3H824.1ZM823.26 62.11V43.64H780.48V62.1L823.26 62.11Z" fill="#E65612"/>
<path d="M284.79 115.35C287.992 115.353 291.064 116.62 293.336 118.877C295.608 121.134 296.896 124.198 296.92 127.4V142.54C296.909 145.751 295.627 148.827 293.354 151.095C291.08 153.363 288.001 154.637 284.79 154.64H250.93C251.09 154.64 251.17 154.8 251.17 155.13C251.082 155.13 250.996 155.098 250.93 155.04V173.85H238.31V115.35H284.79ZM250.93 141.89H284.14V127.96H250.93V141.89Z" fill="#0A0D27"/>
<path d="M361.45 115.31L334.26 152.1V173.92H321.56V152.02L310.9 137.69C305.77 130.85 299.01 121.57 294.45 115.31H309.51L327.91 138.43C333.85 130.94 340.37 122.79 346.23 115.31H361.45Z" fill="#0A0D27"/>
<path d="M424 115.27V127.96H401V173.88H388.3V127.96H365.3V115.27H424Z" fill="#0A0D27"/>
<path d="M490.02 115.27V173.88H477.41V150.88H442.81V173.88H430.19V115.27H442.81V138.22H477.41V115.27H490.02Z" fill="#0A0D27"/>
<path d="M545.79 115.27C548.976 115.275 552.03 116.54 554.287 118.788C556.544 121.035 557.821 124.084 557.84 127.27V161.79C557.832 164.983 556.56 168.044 554.302 170.302C552.044 172.56 548.983 173.832 545.79 173.84H511.27C509.69 173.84 508.125 173.528 506.666 172.922C505.207 172.316 503.882 171.427 502.767 170.308C501.652 169.188 500.769 167.859 500.169 166.398C499.569 164.936 499.263 163.37 499.27 161.79V127.31C499.27 124.127 500.534 121.075 502.785 118.825C505.035 116.574 508.087 115.31 511.27 115.31L545.79 115.27ZM511.84 161.18H545.06V127.96H511.84V161.18Z" fill="#0A0D27"/>
<path d="M612.63 115.27H625.41V173.88H612.41L579.41 134.64V173.88H566.79V115.27H579.79L612.63 154.34V115.27Z" fill="#0A0D27"/>
<path d="M632.37 115.27H645.07V173.88H632.37V115.27Z" fill="#0A0D27"/>
<path d="M710.64 132.77H697.86V127.96H664.64V138.22H698.64C701.825 138.241 704.872 139.519 707.12 141.776C709.367 144.032 710.632 147.085 710.64 150.27V161.83C710.635 165.016 709.37 168.07 707.123 170.327C704.875 172.584 701.826 173.862 698.64 173.88H664.08C662.496 173.887 660.926 173.579 659.461 172.976C657.996 172.373 656.665 171.486 655.545 170.365C654.424 169.245 653.537 167.914 652.934 166.449C652.331 164.984 652.023 163.414 652.03 161.83V156.38H664.64V161.18H697.86V150.92H664.08C662.5 150.927 660.934 150.621 659.472 150.021C658.011 149.421 656.682 148.538 655.562 147.423C654.443 146.308 653.554 144.983 652.948 143.524C652.342 142.065 652.03 140.5 652.03 138.92V127.31C652.03 125.73 652.342 124.165 652.948 122.706C653.554 121.247 654.443 119.922 655.562 118.807C656.682 117.692 658.011 116.809 659.472 116.209C660.934 115.609 662.5 115.303 664.08 115.31H698.59C701.767 115.328 704.808 116.599 707.055 118.845C709.301 121.092 710.572 124.133 710.59 127.31L710.64 132.77Z" fill="#0A0D27"/>
<path d="M775.04 115.27V127.96H752.04V173.88H739.34V127.96H716.34V115.27H775.04Z" fill="#0A0D27"/>
<path d="M827.79 115.27C830.988 115.259 834.06 116.516 836.333 118.765C838.606 121.014 839.896 124.072 839.92 127.27V173.84H827.14V154.99H793.92V173.88H781.3V127.31C781.3 124.127 782.564 121.075 784.815 118.825C787.065 116.574 790.117 115.31 793.3 115.31L827.79 115.27ZM827.14 142.27V127.96H793.92V142.29L827.14 142.27Z" fill="#0A0D27"/>
<path d="M43.35 147.27L43.16 147.59C43.1188 147.546 43.085 147.495 43.06 147.44L43.35 147.27Z" fill="#E65612"/>
<path d="M189.45 37.73C187.99 67.83 181.53 95.01 170.25 118.51C169.41 120.28 168.47 122.14 167.32 124.34C166.65 125.59 165.98 126.83 165.32 128.03L164.82 128.91C164.46 129.54 164.1 130.18 163.72 130.82L163.65 130.94L161.92 133.84L161.46 134.57C160.82 135.57 160.18 136.57 159.52 137.62L159.02 138.39C157.69 140.39 156.31 142.39 154.93 144.29L154.62 144.72C133.47 173.64 108.99 186.64 101.29 190.2C80.1373 179.287 61.8664 163.524 47.97 144.2L47.52 143.55C46 141.43 44.52 139.21 43.03 136.94C42.35 135.88 41.69 134.82 41.03 133.74L40.57 132.99C40.08 132.18 39.57 131.37 39.12 130.55L39.06 130.44C38.59 129.63 38.13 128.82 37.67 128C37.5 127.69 37.33 127.39 37.17 127.08C16.17 89 13.12 49.8 12.68 37.73C49.94 13.99 91.14 6.89002 135.16 16.62C136.42 16.9 137.66 17.19 138.88 17.49C139.521 17.2929 140.204 17.2754 140.855 17.4394C141.505 17.6034 142.099 17.9425 142.57 18.42C158.997 22.7092 174.767 29.2049 189.45 37.73V37.73Z" fill="#E65612"/>
<path d="M43.06 147.44C43.085 147.495 43.1188 147.546 43.16 147.59L43.35 147.27L43.06 147.44Z" fill="white"/>
<path d="M165.31 128.04L164.81 128.92C164.45 129.55 164.09 130.19 163.71 130.83C163.05 130.34 162.41 129.83 161.78 129.29C161.31 128.91 160.87 128.51 160.41 128.12C160.64 129.18 160.9 130.24 161.17 131.29C161.4 132.15 161.64 133.01 161.91 133.85L161.45 134.58C160.81 135.58 160.17 136.58 159.51 137.63L159.01 138.4C157.68 140.4 156.3 142.4 154.92 144.3L154.61 144.73C133.47 173.64 108.99 186.64 101.29 190.2C80.1373 179.287 61.8664 163.524 47.97 144.2L47.52 143.55C46 141.43 44.52 139.21 43.03 136.94C42.35 135.88 41.69 134.82 41.03 133.74L40.57 132.99C40.74 132.43 40.89 131.88 41.04 131.32C41.32 130.32 41.57 129.21 41.8 128.15C41.34 128.54 40.91 128.94 40.44 129.32C39.97 129.7 39.53 130.07 39.06 130.44C38.59 129.63 38.13 128.82 37.67 128C37.5 127.69 37.33 127.39 37.17 127.08C37.71 124.98 38.17 122.84 38.48 120.68C38.76 118.98 38.97 117.25 39.11 115.52C39.1154 115.44 39.1154 115.36 39.11 115.28C39.4928 110.889 40.6756 106.605 42.6 102.64C43.6307 100.513 44.8843 98.5019 46.34 96.64C45.7288 97.3004 45.1514 97.9913 44.61 98.71C44.43 98.94 44.26 99.17 44.09 99.42C43.256 100.586 42.5169 101.816 41.88 103.1C41.9283 101.56 42.0686 100.024 42.3 98.5C42.5104 97.0938 42.8043 95.7013 43.18 94.33C43.31 93.84 43.46 93.33 43.61 92.88C44.7953 89.1461 46.5565 85.6203 48.83 82.43L50.28 80.53C50.53 80.2 50.81 79.89 51.09 79.58C51.68 78.89 52.31 78.23 52.95 77.58C52.45 77.69 51.95 77.81 51.46 77.95C48.4737 78.7896 45.6483 80.1212 43.1 81.89C44.6598 74.9736 48.8251 68.9244 54.73 65C53.3905 59.5177 52.719 53.8935 52.73 48.25C52.7132 38.3621 54.8172 28.5856 58.9 19.58C60.53 15.98 63.9 17.49 67.63 18.83C77.93 22.51 85.63 34.65 86.13 35.33C86.44 35.14 86.76 34.96 87.13 34.78C89.68 33.37 94.96 31.85 101.13 31.86C107.3 31.87 112.6 33.37 115.13 34.78C115.45 34.96 115.78 35.14 116.13 35.33C116.62 34.65 124.31 22.51 134.62 18.83C136.014 18.268 137.448 17.8101 138.91 17.46C139.551 17.2629 140.234 17.2454 140.885 17.4094C141.536 17.5733 142.129 17.9125 142.6 18.39C142.911 18.7449 143.164 19.1465 143.35 19.58C147.433 28.5856 149.537 38.3621 149.52 48.25C149.531 53.8935 148.859 59.5177 147.52 65C153.431 68.925 157.6 74.9784 159.16 81.9C156.61 80.1273 153.781 78.7954 150.79 77.96C150.31 77.82 149.79 77.7 149.32 77.59C149.96 78.24 150.58 78.9 151.17 79.59C151.44 79.9 151.73 80.21 151.98 80.54C152.8 81.6 153.43 82.44 153.43 82.44C155.707 85.6299 157.471 89.1557 158.66 92.89C158.81 93.37 158.95 93.89 159.09 94.34C159.461 95.7125 159.755 97.1047 159.97 98.51C160.198 100.034 160.335 101.57 160.38 103.11C159.747 101.824 159.008 100.593 158.17 99.43C158 99.18 157.82 98.95 157.65 98.72C157.112 97.9989 156.534 97.3079 155.92 96.65C157.379 98.5095 158.633 100.521 159.66 102.65C161.583 106.612 162.766 110.893 163.15 115.28C163.155 115.36 163.155 115.44 163.15 115.52C163.29 117.25 163.51 118.98 163.77 120.68C164.142 123.161 164.656 125.618 165.31 128.04V128.04Z" fill="white"/>
<path d="M84.41 80.57C84.4102 80.8591 84.3801 81.1473 84.32 81.43C84.1732 82.0924 83.8715 82.7106 83.4395 83.2337C83.0075 83.7568 82.4576 84.17 81.8349 84.4394C81.2122 84.7088 80.5345 84.8266 79.8574 84.7833C79.1804 84.7399 78.5232 84.5366 77.94 84.19C77.4613 83.8961 77.041 83.5164 76.7 83.07C76.1483 82.3344 75.85 81.4396 75.85 80.52C75.8479 79.7018 76.0805 78.9002 76.52 78.21C76.6454 78.0217 76.7823 77.8414 76.93 77.67H77.42C78.7195 77.6637 80.0072 77.917 81.2075 78.415C82.4078 78.913 83.4966 79.6456 84.41 80.57V80.57Z" fill="#FFD342"/>
<path d="M131.12 79.91C130.701 80.0195 130.291 80.1564 129.89 80.32L129.19 80.64C128.276 81.106 127.44 81.7097 126.71 82.43C126.345 82.7958 126.011 83.1904 125.71 83.61C125.36 83.9531 124.986 84.2706 124.59 84.56C124.056 84.9509 123.483 85.286 122.88 85.56C122.262 85.845 121.615 86.0629 120.95 86.21V86.21C120.563 86.2522 120.18 86.3156 119.8 86.4C118.018 86.7991 116.382 87.6893 115.08 88.97C115.026 88.6121 114.993 88.2516 114.98 87.89C114.98 87.77 114.98 87.65 114.98 87.53V87.44C114.981 85.3601 115.639 83.3337 116.86 81.65C117.16 81.242 117.495 80.8605 117.86 80.51C117.859 80.7991 117.889 81.0874 117.95 81.37C118.088 81.9974 118.366 82.5856 118.762 83.0911C119.158 83.5965 119.664 84.0063 120.24 84.29C120.83 84.5833 121.481 84.7341 122.14 84.73C122.911 84.7308 123.667 84.5235 124.33 84.13C124.811 83.8389 125.232 83.4588 125.57 83.01C126.119 82.273 126.417 81.3791 126.42 80.46C126.419 79.6422 126.186 78.8415 125.75 78.15C125.628 77.9626 125.491 77.7854 125.34 77.62H126.06C126.918 77.7264 127.759 77.945 128.56 78.27C128.902 78.4196 129.235 78.5865 129.56 78.77C129.952 78.9886 130.33 79.2324 130.69 79.5C130.841 79.6287 130.984 79.7656 131.12 79.91V79.91Z" fill="#0A0D27"/>
<path d="M126.34 80.4501C126.337 81.3692 126.039 82.2631 125.49 83.0001V83.0001C125.152 83.4488 124.731 83.829 124.25 84.1201C123.587 84.5136 122.831 84.7209 122.06 84.7201C121.401 84.7241 120.75 84.5735 120.16 84.2801C119.584 83.9964 119.079 83.5867 118.682 83.0812C118.286 82.5757 118.008 81.9874 117.87 81.3601C117.809 81.0775 117.779 80.7891 117.78 80.5001C118.693 79.5708 119.783 78.8338 120.985 78.3323C122.187 77.8308 123.477 77.575 124.78 77.5801C124.943 77.5703 125.107 77.5703 125.27 77.5801C125.421 77.7455 125.558 77.9227 125.68 78.1101C126.118 78.8113 126.347 79.6231 126.34 80.4501V80.4501Z" fill="white"/>
<path d="M80.02 79.2701C79.6769 79.2697 79.3455 79.3944 79.0878 79.6208C78.8301 79.8472 78.6638 80.1598 78.62 80.5C78.6152 80.5432 78.6152 80.5868 78.62 80.63V80.69C78.6195 81.0522 78.7584 81.4006 79.0079 81.6631C79.2574 81.9256 79.5983 82.0821 79.96 82.1H80.04C80.3965 82.0986 80.7395 81.9631 81.0008 81.7204C81.262 81.4777 81.4224 81.1456 81.45 80.79V80.6801C81.4487 80.4936 81.4106 80.3092 81.3381 80.1374C81.2655 79.9656 81.1598 79.8098 81.027 79.6789C80.8942 79.5479 80.7369 79.4444 80.5641 79.3743C80.3914 79.3042 80.2065 79.2687 80.02 79.2701V79.2701Z" fill="black"/>
<path d="M80.63 80.2C80.63 80.2988 80.6007 80.3955 80.5457 80.4778C80.4908 80.56 80.4127 80.6241 80.3213 80.6619C80.23 80.6997 80.1295 80.7096 80.0325 80.6903C79.9355 80.671 79.8464 80.6234 79.7765 80.5535C79.7065 80.4836 79.6589 80.3945 79.6396 80.2975C79.6203 80.2005 79.6302 80.1 79.6681 80.0086C79.7059 79.9172 79.77 79.8392 79.8522 79.7842C79.9345 79.7293 80.0311 79.7 80.13 79.7C80.2626 79.7 80.3898 79.7526 80.4835 79.8464C80.5773 79.9402 80.63 80.0673 80.63 80.2Z" fill="white"/>
<path d="M122.73 80.2C122.73 80.2988 122.701 80.3955 122.646 80.4778C122.591 80.56 122.513 80.6241 122.421 80.6619C122.33 80.6997 122.229 80.7096 122.132 80.6903C122.035 80.671 121.946 80.6234 121.876 80.5535C121.807 80.4836 121.759 80.3945 121.74 80.2975C121.72 80.2005 121.73 80.1 121.768 80.0086C121.806 79.9172 121.87 79.8392 121.952 79.7842C122.034 79.7293 122.131 79.7 122.23 79.7C122.363 79.7 122.49 79.7526 122.584 79.8464C122.677 79.9402 122.73 80.0673 122.73 80.2Z" fill="white"/>
<path d="M122.06 79.1599C121.717 79.1596 121.386 79.2843 121.128 79.5107C120.87 79.7371 120.704 80.0497 120.66 80.39C120.655 80.4365 120.655 80.4834 120.66 80.53V80.58C120.657 80.9428 120.795 81.2926 121.045 81.5557C121.295 81.8187 121.637 81.9744 122 81.99H122.08C122.435 81.9887 122.777 81.8546 123.038 81.614C123.299 81.3733 123.46 81.0437 123.49 80.6899V80.57C123.489 80.3835 123.451 80.1991 123.378 80.0273C123.306 79.8555 123.2 79.6997 123.067 79.5688C122.934 79.4379 122.777 79.3344 122.604 79.2642C122.431 79.1941 122.246 79.1586 122.06 79.1599V79.1599Z" fill="black"/>
<path d="M122.67 79.92C122.67 80.0189 122.641 80.1156 122.586 80.1978C122.531 80.2801 122.453 80.3441 122.361 80.382C122.27 80.4198 122.169 80.4297 122.072 80.4104C121.975 80.3911 121.886 80.3435 121.816 80.2736C121.747 80.2037 121.699 80.1146 121.68 80.0176C121.66 79.9206 121.67 79.8201 121.708 79.7287C121.746 79.6373 121.81 79.5592 121.892 79.5043C121.974 79.4494 122.071 79.42 122.17 79.42C122.303 79.42 122.43 79.4727 122.524 79.5665C122.617 79.6603 122.67 79.7874 122.67 79.92Z" fill="white"/>
<path d="M71.07 79.84C71.4886 79.9495 71.8995 80.0865 72.3 80.25C72.54 80.35 72.77 80.45 73 80.57C73.9129 81.0329 74.7493 81.6332 75.48 82.35C75.8449 82.7154 76.1794 83.1101 76.48 83.53C76.8297 83.8736 77.204 84.1911 77.6 84.48C78.132 84.8745 78.7053 85.2098 79.31 85.48C79.9283 85.765 80.5753 85.9829 81.24 86.13C81.6231 86.173 82.0037 86.2364 82.38 86.32V86.32C84.161 86.7231 85.795 87.6128 87.1 88.89C87.1536 88.5355 87.187 88.1783 87.2 87.82C87.2 87.7 87.2 87.58 87.2 87.45V87.37C87.2006 86.7934 87.1504 86.2178 87.05 85.65C86.7972 84.1774 86.2049 82.7839 85.32 81.58C85.0226 81.1699 84.6879 80.7883 84.32 80.44C84.3203 80.729 84.2901 81.0173 84.23 81.3C84.0196 82.2356 83.501 83.0733 82.7576 83.679C82.0141 84.2846 81.0888 84.6231 80.13 84.64C79.3579 84.6408 78.6005 84.4299 77.94 84.03C77.4592 83.7389 77.0384 83.3588 76.7 82.91V82.91C76.1496 82.1737 75.8514 81.2794 75.85 80.36V80.36C75.851 79.5454 76.0833 78.7477 76.52 78.06C76.6454 77.8717 76.7823 77.6914 76.93 77.52C76.69 77.52 76.44 77.52 76.21 77.58C75.3519 77.6865 74.5114 77.905 73.71 78.23C73.3686 78.3762 73.0348 78.5397 72.71 78.72C72.3201 78.9422 71.9429 79.1859 71.58 79.45L71.07 79.84Z" fill="#0A0D27"/>
<path d="M78.43 80.43C78.446 80.3242 78.4728 80.2203 78.51 80.12C78.4715 80.2193 78.4479 80.3238 78.44 80.43V80.43H78.43ZM78.63 79.84C78.6993 79.7083 78.7868 79.5871 78.89 79.48C78.7868 79.5871 78.6993 79.7083 78.63 79.84ZM81.35 79.45C81.1898 79.29 80.9995 79.1635 80.7901 79.0776C80.5807 78.9918 80.3563 78.9484 80.13 78.95C79.9218 78.9507 79.7153 78.9879 79.52 79.06C79.7134 78.98 79.9207 78.9392 80.13 78.94C80.3569 78.9403 80.5816 78.9855 80.791 79.073C81.0003 79.1606 81.1903 79.2887 81.35 79.45V79.45Z" fill="#0A0D27"/>
<path d="M75.85 80.3701C75.8514 81.2894 76.1495 82.1838 76.7 82.9201C77.0383 83.3689 77.4592 83.749 77.94 84.0401C78.6004 84.4399 79.3579 84.6509 80.13 84.6501C81.107 84.6524 82.0554 84.3203 82.8176 83.7091C83.5798 83.0979 84.11 82.2443 84.32 81.2901C84.38 81.0074 84.4102 80.7191 84.41 80.4301C83.4971 79.5009 82.4074 78.7638 81.2052 78.2623C80.003 77.7608 78.7126 77.505 77.41 77.5101H76.92C76.7723 77.6814 76.6353 77.8618 76.51 78.0501C76.0731 78.7446 75.8441 79.5496 75.85 80.3701V80.3701Z" fill="white"/>
<path d="M79.43 80.12C79.43 80.2189 79.4593 80.3155 79.5143 80.3978C79.5692 80.48 79.6473 80.5441 79.7386 80.5819C79.83 80.6198 79.9305 80.6297 80.0275 80.6104C80.1245 80.5911 80.2136 80.5435 80.2835 80.4735C80.3535 80.4036 80.4011 80.3145 80.4204 80.2175C80.4397 80.1205 80.4298 80.02 80.3919 79.9286C80.3541 79.8373 80.29 79.7592 80.2078 79.7043C80.1255 79.6493 80.0289 79.62 79.93 79.62C79.7974 79.62 79.6702 79.6727 79.5764 79.7664C79.4826 79.8602 79.43 79.9874 79.43 80.12Z" fill="#0A0D27"/>
<path d="M80.13 79.0901C80.473 79.0897 80.8045 79.2144 81.0622 79.4408C81.3199 79.6672 81.4862 79.9798 81.53 80.3201C81.5348 80.3633 81.5348 80.4069 81.53 80.4501V80.5101C81.5304 80.8722 81.3916 81.2207 81.1421 81.4832C80.8926 81.7457 80.5517 81.9021 80.19 81.9201H80.11C79.7634 81.912 79.4317 81.7774 79.1774 81.5416C78.9232 81.3058 78.7641 80.9851 78.73 80.6401V80.5301C78.7274 80.3436 78.7615 80.1584 78.8304 79.9851C78.8993 79.8118 79.0017 79.6538 79.1317 79.5201C79.2617 79.3864 79.4168 79.2796 79.5881 79.2058C79.7594 79.132 79.9435 79.0927 80.13 79.0901V79.0901Z" fill="#0A0D27"/>
<path d="M79.52 79.8401C79.52 79.939 79.5493 80.0356 79.6043 80.1179C79.6592 80.2001 79.7373 80.2642 79.8287 80.302C79.92 80.3398 80.0206 80.3498 80.1176 80.3305C80.2145 80.3112 80.3036 80.2636 80.3736 80.1936C80.4435 80.1237 80.4911 80.0346 80.5104 79.9376C80.5297 79.8406 80.5198 79.7401 80.482 79.6487C80.4441 79.5574 80.38 79.4793 80.2978 79.4243C80.2156 79.3694 80.1189 79.3401 80.02 79.3401C79.8874 79.3401 79.7602 79.3927 79.6664 79.4865C79.5727 79.5803 79.52 79.7075 79.52 79.8401Z" fill="white"/>
<path d="M111.49 138.43C111.94 138.43 112.39 138.43 112.82 138.36C111.334 139.992 109.523 141.295 107.504 142.187C105.485 143.079 103.302 143.54 101.095 143.54C98.8878 143.54 96.7049 143.079 94.6859 142.187C92.6669 141.295 90.8564 139.992 89.37 138.36C89.81 138.36 90.25 138.43 90.71 138.43C93.5279 138.433 96.271 137.524 98.53 135.84C96.7892 135.302 95.1792 134.408 93.802 133.215C92.4249 132.022 91.3106 130.556 90.53 128.91L90.42 128.68C89.6594 126.985 89.2674 125.148 89.27 123.29C89.27 123.06 89.27 122.83 89.27 122.6C89.39 120.45 89.48 118.6 91.04 116.67C92.0658 115.521 93.4265 114.724 94.93 114.39C98.9766 113.483 103.173 113.483 107.22 114.39C108.729 114.706 110.099 115.494 111.13 116.64C112.69 118.64 112.79 120.42 112.9 122.57C112.9 122.8 112.9 123.03 112.9 123.26C112.89 125.115 112.491 126.948 111.73 128.64L111.61 128.87C110.83 130.517 109.717 131.984 108.339 133.177C106.962 134.37 105.351 135.263 103.61 135.8C105.878 137.515 108.646 138.439 111.49 138.43V138.43Z" fill="#0A0D27"/>
<path d="M43.87 146.88L43.56 147.19L43.95 146.99L43.87 146.88Z" fill="#0A0D27"/>
<path d="M138.86 17.46C140.113 17.76 141.343 18.07 142.55 18.39C142.079 17.9125 141.486 17.5733 140.835 17.4094C140.184 17.2454 139.501 17.2629 138.86 17.46V17.46Z" fill="#0A0D27"/>
<path d="M198.79 29.6401C196.26 27.9601 173.1 12.9701 138.06 5.15008C117.566 0.477901 96.4075 -0.537699 75.56 2.15008C50.15 5.54008 25.89 14.7901 3.44 29.6601L0.839996 31.3801L0.790009 34.5801C0.979756 46.3951 2.23145 58.1692 4.53 69.7601C8.12 88.6701 15.99 116.76 33.08 143.34C34.74 145.92 36.46 148.45 38.17 150.82C38.2686 150.969 38.3754 151.113 38.49 151.25C54.0388 172.837 74.6392 190.285 98.49 202.07L100.79 203.21L103.21 202.3C104.57 201.78 136.8 189.2 164.21 151.75L164.97 150.69C165.9 149.42 166.83 148.07 167.82 146.59C168.39 145.77 168.93 144.94 169.47 144.12L170.26 142.89C189.47 112.89 199.97 76.5301 201.45 34.7901L201.56 31.5201L198.79 29.6401ZM43.16 147.64C43.1188 147.596 43.085 147.545 43.06 147.49L43.35 147.32L43.16 147.64ZM43.56 147.24L43.87 146.93L43.95 147.04L43.56 147.24ZM170.25 118.56C169.41 120.33 168.47 122.19 167.32 124.39C166.65 125.64 165.98 126.88 165.32 128.08L164.82 128.96C164.46 129.59 164.1 130.23 163.72 130.87L163.65 130.99L161.92 133.89L161.46 134.62C160.82 135.62 160.18 136.62 159.52 137.67L159.02 138.44C157.69 140.44 156.31 142.44 154.93 144.34L154.62 144.77C133.47 173.64 108.99 186.64 101.29 190.2C80.1373 179.287 61.8665 163.524 47.97 144.2L47.52 143.55C46 141.43 44.52 139.21 43.03 136.94C42.35 135.88 41.69 134.82 41.03 133.74L40.57 132.99C40.08 132.18 39.57 131.37 39.12 130.55L39.06 130.44C38.59 129.63 38.13 128.82 37.67 128C37.5 127.69 37.33 127.39 37.17 127.08C16.17 89.0001 13.12 49.8001 12.68 37.7301C49.94 13.9901 91.14 6.89008 135.16 16.6201C136.42 16.9001 137.66 17.1901 138.88 17.4901C139.521 17.293 140.204 17.2755 140.855 17.4394C141.506 17.6034 142.099 17.9426 142.57 18.4201C159.006 22.717 174.783 29.2229 189.47 37.7601C187.99 67.8301 181.53 95.0101 170.25 118.51V118.56Z" fill="#0A0D27"/>
<path d="M43.06 147.44C43.085 147.495 43.1188 147.546 43.16 147.59L43.35 147.27L43.06 147.44ZM43.06 147.44C43.085 147.495 43.1188 147.546 43.16 147.59L43.35 147.27L43.06 147.44ZM43.06 147.44C43.085 147.495 43.1188 147.546 43.16 147.59L43.35 147.27L43.06 147.44Z" fill="#0A0D27"/>
</svg>
