<svg width="840" height="203" viewBox="0 0 840 203" fill="none" xmlns="http://www.w3.org/2000/svg">
<path d="M297.73 26.72C299.775 26.7134 301.801 27.1096 303.692 27.886C305.584 28.6624 307.304 29.8038 308.754 31.245C310.205 32.6861 311.357 34.3989 312.146 36.2854C312.934 38.1719 313.343 40.1953 313.35 42.24V102.24H296.89V77.89H254.11V102.21H237.86V42.21C237.855 40.1704 238.253 38.1499 239.031 36.2645C239.809 34.3791 240.952 32.6661 242.394 31.2239C243.836 29.7817 245.549 28.6387 247.435 27.8606C249.32 27.0826 251.34 26.6847 253.38 26.69L297.73 26.72ZM296.89 61.53V43.07H254.11V61.53H296.89Z" fill="#E65612"/>
<path d="M322.42 26.6399H338.67V85.8799H397.91V102.23H322.42V26.6399Z" fill="#E65612"/>
<path d="M423.23 43.07V85.85H482.23V102.21H422.5C420.46 102.215 418.44 101.817 416.554 101.039C414.669 100.261 412.956 99.1183 411.514 97.6761C410.072 96.2339 408.929 94.5209 408.151 92.6355C407.373 90.7502 406.975 88.7296 406.98 86.69V42.24C406.975 40.2004 407.373 38.1799 408.151 36.2945C408.929 34.4092 410.072 32.6962 411.514 31.254C412.956 29.8117 414.669 28.6687 416.554 27.8907C418.44 27.1126 420.46 26.7147 422.5 26.72H482.26V43.07H423.23Z" fill="#E65612"/>
<path d="M553.24 26.72C557.37 26.7067 561.337 28.3341 564.268 31.2444C567.199 34.1546 568.854 38.1096 568.87 42.24V102.24H552.4V77.89H509.62V102.21H493.37V42.21C493.365 40.1704 493.763 38.1499 494.541 36.2645C495.319 34.3791 496.462 32.6661 497.904 31.2239C499.346 29.7817 501.059 28.6387 502.945 27.8606C504.83 27.0826 506.85 26.6847 508.89 26.69L553.24 26.72ZM552.4 61.53V43.07H509.62V61.53H552.4Z" fill="#E65612"/>
<path d="M652.53 26.72V43.07H622.97V102.21H606.61V43.07H577.04V26.72H652.53Z" fill="#E65612"/>
<path d="M730.33 43.07H677.06V56.29H719.95V72.64H677.06V85.85H730.33V102.21H660.6V26.72H730.33V43.07Z" fill="#E65612"/>
<path d="M738.98 26.72H755.33V102.21H738.98V26.72Z" fill="#E65612"/>
<path d="M823.85 26.72C825.895 26.7134 827.921 27.1096 829.812 27.886C831.704 28.6624 833.424 29.8038 834.874 31.245C836.325 32.6861 837.477 34.3989 838.266 36.2854C839.054 38.1719 839.463 40.1953 839.47 42.24V102.24H823.01V77.89H780.23V102.21H763.98V42.21C763.975 40.1704 764.373 38.1499 765.151 36.2645C765.929 34.3791 767.072 32.6661 768.514 31.2239C769.956 29.7817 771.669 28.6387 773.554 27.8606C775.44 27.0826 777.46 26.6847 779.5 26.69L823.85 26.72ZM823.01 61.53V43.07H780.23V61.53H823.01Z" fill="#E65612"/>
<path d="M284.54 114.77C287.742 114.773 290.814 116.04 293.086 118.297C295.358 120.554 296.646 123.618 296.67 126.82V141.96C296.646 145.162 295.358 148.226 293.086 150.483C290.814 152.74 287.742 154.007 284.54 154.01L250.68 154.09C250.84 154.09 250.92 154.25 250.92 154.58C250.833 154.58 250.749 154.552 250.68 154.5V173.3H238.06V114.77H284.54ZM250.73 141.31H283.94V127.39H250.73V141.31Z" fill="white"/>
<path d="M361.2 114.73L334.01 151.52V173.34H321.31V151.44L310.64 137.11C305.52 130.28 298.76 121 294.2 114.73H309.26L327.66 137.85C333.6 130.36 340.12 122.22 345.98 114.73H361.2Z" fill="white"/>
<path d="M423.73 114.69V127.39H400.73V173.3H388.03V127.39H365.03V114.69H423.73Z" fill="white"/>
<path d="M489.73 114.69V173.3H477.15V150.3H442.56V173.3H429.94V114.69H442.56V137.64H477.15V114.69H489.73Z" fill="white"/>
<path d="M545.54 114.69C548.726 114.695 551.78 115.96 554.037 118.207C556.294 120.455 557.571 123.504 557.59 126.69V161.21C557.569 164.395 556.291 167.442 554.034 169.69C551.778 171.937 548.725 173.202 545.54 173.21H511.02C507.837 173.21 504.785 171.946 502.535 169.695C500.284 167.445 499.02 164.393 499.02 161.21V126.73C499.02 123.547 500.284 120.495 502.535 118.245C504.785 115.994 507.837 114.73 511.02 114.73L545.54 114.69ZM511.59 160.64H544.81V127.39H511.59V160.64Z" fill="white"/>
<path d="M612.38 114.69H625.16V173.3H612.16L579.16 134.06V173.3H566.54V114.69H579.54L612.35 153.76L612.38 114.69Z" fill="white"/>
<path d="M632.12 114.69H644.82V173.3H632.12V114.69Z" fill="white"/>
<path d="M710.39 132.19H697.61V127.39H664.39V137.64H698.39C701.575 137.661 704.622 138.939 706.87 141.196C709.117 143.452 710.382 146.505 710.39 149.69V161.25C710.372 164.427 709.101 167.468 706.855 169.715C704.609 171.961 701.567 173.232 698.39 173.25H663.82C660.637 173.25 657.585 171.986 655.335 169.735C653.084 167.485 651.82 164.433 651.82 161.25V155.8H664.43V160.64H697.65V150.34H663.82C660.637 150.34 657.585 149.076 655.335 146.825C653.084 144.575 651.82 141.523 651.82 138.34V126.73C651.82 123.547 653.084 120.495 655.335 118.245C657.585 115.994 660.637 114.73 663.82 114.73H698.34C701.517 114.748 704.558 116.019 706.805 118.265C709.051 120.511 710.322 123.553 710.34 126.73L710.39 132.19Z" fill="white"/>
<path d="M774.78 114.69V127.39H751.83V173.3H739.13V127.39H716.13V114.69H774.78Z" fill="white"/>
<path d="M827.54 114.69C830.738 114.679 833.81 115.936 836.083 118.185C838.356 120.434 839.646 123.492 839.67 126.69V173.26H826.89V154.41H793.67V173.3H781.05V126.73C781.05 123.547 782.314 120.495 784.565 118.245C786.815 115.994 789.867 114.73 793.05 114.73L827.54 114.69ZM826.89 141.69V127.39H793.67V141.71L826.89 141.69Z" fill="white"/>
<path d="M43.1 146.7L42.91 147.02C42.8688 146.976 42.835 146.925 42.81 146.87L43.1 146.7Z" fill="#E65612"/>
<path d="M189.2 37.16C187.74 67.26 181.28 94.44 170 117.94C169.16 119.71 168.22 121.57 167.07 123.77C166.4 125.02 165.73 126.26 165.07 127.46L164.57 128.34C164.21 128.97 163.85 129.61 163.47 130.25L163.4 130.37L161.67 133.27L161.21 134C160.57 135 159.93 136 159.27 137L158.77 137.77C157.44 139.77 156.06 141.77 154.68 143.67L154.37 144.1C133.22 173.09 108.73 186.07 101.04 189.64C79.891 178.725 61.6236 162.963 47.73 143.64L47.28 142.99C45.76 140.87 44.28 138.65 42.79 136.38C42.11 135.32 41.45 134.26 40.79 133.18L40.33 132.43C39.84 131.62 39.33 130.81 38.88 129.99L38.82 129.88C38.35 129.07 37.89 128.26 37.43 127.44C37.26 127.13 37.09 126.83 36.93 126.52C15.93 88.44 12.88 49.24 12.44 37.17C49.7 13.43 90.9 6.32996 134.92 16.06C136.18 16.34 137.42 16.63 138.64 16.93C139.281 16.7329 139.964 16.7154 140.615 16.8793C141.266 17.0433 141.859 17.3825 142.33 17.86C158.753 22.1468 174.52 28.6392 189.2 37.16V37.16Z" fill="#E65612"/>
<path d="M42.81 146.87C42.835 146.925 42.8688 146.976 42.91 147.02L43.1 146.7L42.81 146.87Z" fill="white"/>
<path d="M165.06 127.47L164.56 128.35C164.2 128.98 163.84 129.62 163.46 130.26C162.8 129.77 162.16 129.26 161.53 128.72C161.06 128.34 160.62 127.94 160.16 127.55C160.39 128.61 160.65 129.67 160.92 130.72C161.15 131.58 161.39 132.44 161.66 133.28L161.2 134.01C160.56 135.01 159.92 136.01 159.26 137.01L158.76 137.78C157.43 139.78 156.05 141.78 154.67 143.68L154.36 144.11C133.22 173.09 108.73 186.07 101.04 189.64C79.8909 178.725 61.6236 162.963 47.73 143.64L47.28 142.99C45.76 140.87 44.28 138.65 42.79 136.38C42.11 135.32 41.45 134.26 40.79 133.18L40.33 132.43C40.5 131.87 40.65 131.32 40.8 130.76C41.08 129.71 41.33 128.65 41.56 127.59C41.1 127.98 40.67 128.38 40.2 128.76C39.73 129.14 39.29 129.51 38.82 129.88C38.35 129.07 37.89 128.26 37.43 127.44C37.26 127.13 37.09 126.83 36.93 126.52C37.47 124.42 37.93 122.28 38.24 120.12C38.52 118.42 38.73 116.69 38.87 114.96C38.8754 114.88 38.8754 114.8 38.87 114.72C39.254 110.332 40.4368 106.052 42.36 102.09C43.3907 99.9631 44.6444 97.9518 46.1 96.0899C45.4888 96.7503 44.9114 97.4412 44.37 98.1599C44.19 98.3899 44.02 98.6199 43.85 98.8699C43.016 100.035 42.277 101.266 41.64 102.55C41.6883 101.01 41.8286 99.4735 42.06 97.9499C42.2704 96.5437 42.5642 95.1512 42.94 93.7799C43.07 93.2899 43.22 92.7799 43.37 92.3299C44.5553 88.596 46.3165 85.0702 48.59 81.8799L50.04 79.9799C50.29 79.6499 50.57 79.3399 50.85 78.9799C51.44 78.2899 52.07 77.6299 52.71 76.9799C52.21 77.0899 51.71 77.2099 51.22 77.3499C48.2337 78.1895 45.4083 79.5211 42.86 81.2899C44.4199 74.3682 48.5892 68.3149 54.5 64.3899C53.1605 58.9076 52.489 53.2834 52.5 47.6399C52.4832 37.752 54.5872 27.9755 58.67 18.9699C60.3 15.3699 63.67 16.8799 67.4 18.2199C77.7 21.8999 85.4 34.0399 85.9 34.7199C86.21 34.5299 86.53 34.3499 86.9 34.1699C89.45 32.7599 94.73 31.2399 100.9 31.2499C107.07 31.2599 112.37 32.7599 114.9 34.1699C115.22 34.3499 115.55 34.5299 115.9 34.7199C116.39 34.0399 124.08 21.8999 134.39 18.2199C135.784 17.6579 137.218 17.2 138.68 16.8499C139.321 16.6528 140.004 16.6353 140.655 16.7993C141.306 16.9632 141.899 17.3024 142.37 17.7799C142.681 18.1348 142.934 18.5364 143.12 18.9699C147.179 27.9809 149.259 37.7571 149.22 47.6399C149.231 53.2834 148.559 58.9076 147.22 64.3899C153.131 68.3149 157.3 74.3682 158.86 81.2899C156.31 79.5172 153.481 78.1853 150.49 77.3499C150.01 77.2099 149.49 77.0899 149.02 76.9799C149.66 77.6299 150.28 78.2899 150.87 78.9799C151.14 79.2899 151.43 79.5999 151.68 79.9799C152.5 81.0399 153.13 81.8799 153.13 81.8799C155.407 85.0698 157.171 88.5956 158.36 92.3299C158.51 92.8099 158.65 93.3299 158.79 93.7799C159.161 95.1524 159.455 96.5445 159.67 97.9499C159.898 99.4737 160.035 101.01 160.08 102.55C159.447 101.264 158.708 100.033 157.87 98.8699C157.7 98.6199 157.52 98.3899 157.35 98.1599C156.812 97.4388 156.234 96.7478 155.62 96.0899C157.079 97.9493 158.333 99.961 159.36 102.09C161.267 106.029 162.443 110.281 162.83 114.64C162.835 114.72 162.835 114.8 162.83 114.88C162.97 116.61 163.19 118.34 163.45 120.04C163.843 122.546 164.38 125.026 165.06 127.47Z" fill="white"/>
<path d="M84.16 79.9901C84.1612 80.2791 84.131 80.5675 84.07 80.8501C83.9249 81.5092 83.6264 82.1248 83.1986 82.6468C82.7709 83.1689 82.226 83.5827 81.6082 83.8545C80.9905 84.1263 80.3173 84.2486 79.6435 84.2113C78.9696 84.1741 78.314 83.9784 77.73 83.6401C77.2492 83.349 76.8284 82.9688 76.49 82.5201V82.5201C75.9383 81.7844 75.64 80.8896 75.64 79.9701V79.9701C75.6413 79.1523 75.8735 78.3516 76.31 77.6601C76.4297 77.4709 76.567 77.2935 76.72 77.1301C76.8832 77.1201 77.0468 77.1201 77.21 77.1301C78.5 77.1238 79.7784 77.3734 80.9713 77.8643C82.1643 78.3552 83.248 79.0777 84.16 79.9901V79.9901Z" fill="#FFD342"/>
<path d="M130.87 79.33C130.45 79.4384 130.039 79.5788 129.64 79.75C129.4 79.84 129.17 79.95 128.94 80.06C128.026 80.526 127.19 81.1297 126.46 81.85C126.09 82.2108 125.755 82.6059 125.46 83.03C125.109 83.388 124.735 83.722 124.34 84.03C123.258 84.8051 122.03 85.3528 120.73 85.64V85.64C120.347 85.6831 119.966 85.7465 119.59 85.83V85.83C117.808 86.2291 116.172 87.1194 114.87 88.4C114.816 88.0423 114.783 87.6817 114.77 87.32C114.77 87.2 114.77 87.09 114.77 86.96V86.88C114.769 84.7968 115.427 82.7665 116.65 81.08C116.953 80.6741 117.287 80.2929 117.65 79.94C117.649 80.2291 117.679 80.5175 117.74 80.8C117.878 81.4274 118.156 82.0156 118.552 82.5211C118.949 83.0266 119.454 83.4364 120.03 83.72C120.62 84.0145 121.271 84.1652 121.93 84.16C122.701 84.1594 123.457 83.9522 124.12 83.56C124.601 83.2689 125.022 82.8888 125.36 82.44V82.44C125.909 81.703 126.207 80.8092 126.21 79.89C126.21 79.0707 125.974 78.2686 125.53 77.58C125.409 77.3946 125.275 77.2175 125.13 77.05C125.37 77.05 125.62 77.05 125.85 77.11C126.708 77.213 127.548 77.4282 128.35 77.75C128.7 77.9 129.05 78.07 129.35 78.25C129.742 78.4686 130.12 78.7125 130.48 78.98L130.87 79.33Z" fill="#0A0D27"/>
<path d="M126.09 79.87C126.087 80.7891 125.789 81.683 125.24 82.42V82.42C124.902 82.8688 124.481 83.2489 124 83.54C123.337 83.9322 122.58 84.1394 121.81 84.14C121.151 84.1452 120.5 83.9944 119.91 83.7C119.334 83.4163 118.829 83.0066 118.432 82.5011C118.036 81.9956 117.758 81.4074 117.62 80.78C117.559 80.4974 117.529 80.2091 117.53 79.92C118.444 78.9926 119.534 78.2567 120.736 77.7554C121.938 77.254 123.228 76.9972 124.53 77C124.693 76.9902 124.857 76.9902 125.02 77C125.165 77.1674 125.299 77.3445 125.42 77.53C125.866 78.2282 126.099 79.0414 126.09 79.87V79.87Z" fill="white"/>
<path d="M79.73 78.6899C79.387 78.6896 79.0556 78.8143 78.7978 79.0407C78.5401 79.2671 78.3738 79.5797 78.33 79.9199C78.3252 79.9631 78.3252 80.0067 78.33 80.0499V80.1099C78.3296 80.4721 78.4685 80.8205 78.7179 81.083C78.9674 81.3455 79.3083 81.502 79.67 81.5199H79.73C80.085 81.5187 80.4266 81.3846 80.6876 81.1439C80.9486 80.9033 81.11 80.5737 81.14 80.2199V80.0999C81.1374 79.7268 80.988 79.3697 80.7241 79.1058C80.4603 78.842 80.1031 78.6926 79.73 78.6899V78.6899Z" fill="black"/>
<path d="M80.38 79.6399C80.38 79.7388 80.3507 79.8355 80.2957 79.9177C80.2408 79.9999 80.1627 80.064 80.0713 80.1018C79.98 80.1397 79.8795 80.1496 79.7825 80.1303C79.6855 80.111 79.5964 80.0634 79.5265 79.9934C79.4565 79.9235 79.4089 79.8344 79.3896 79.7374C79.3703 79.6404 79.3802 79.5399 79.4181 79.4485C79.4559 79.3572 79.52 79.2791 79.6022 79.2242C79.6845 79.1692 79.7811 79.1399 79.88 79.1399C80.0126 79.1399 80.1398 79.1926 80.2335 79.2863C80.3273 79.3801 80.38 79.5073 80.38 79.6399Z" fill="white"/>
<path d="M122.51 79.6399C122.51 79.7388 122.481 79.8355 122.426 79.9177C122.371 79.9999 122.293 80.064 122.201 80.1018C122.11 80.1397 122.009 80.1496 121.912 80.1303C121.815 80.111 121.726 80.0634 121.656 79.9934C121.587 79.9235 121.539 79.8344 121.52 79.7374C121.5 79.6404 121.51 79.5399 121.548 79.4485C121.586 79.3572 121.65 79.2791 121.732 79.2242C121.814 79.1692 121.911 79.1399 122.01 79.1399C122.143 79.1399 122.27 79.1926 122.364 79.2863C122.457 79.3801 122.51 79.5073 122.51 79.6399Z" fill="white"/>
<path d="M121.81 78.64C121.468 78.6393 121.138 78.7626 120.881 78.987C120.623 79.2114 120.456 79.5216 120.41 79.86C120.405 79.9066 120.405 79.9535 120.41 80V80.06C120.41 80.4212 120.549 80.7685 120.799 81.0294C121.048 81.2903 121.389 81.4446 121.75 81.46H121.83C122.185 81.4588 122.527 81.3247 122.788 81.084C123.049 80.8434 123.21 80.5137 123.24 80.16V80.05C123.24 79.8632 123.203 79.6782 123.131 79.5058C123.059 79.3334 122.953 79.1771 122.82 79.0459C122.687 78.9147 122.529 78.8112 122.356 78.7416C122.182 78.6719 121.997 78.6374 121.81 78.64V78.64Z" fill="black"/>
<path d="M122.42 79.3401C122.42 79.439 122.391 79.5356 122.336 79.6179C122.281 79.7001 122.203 79.7642 122.111 79.802C122.02 79.8399 121.919 79.8498 121.822 79.8305C121.725 79.8112 121.636 79.7636 121.566 79.6936C121.497 79.6237 121.449 79.5346 121.43 79.4376C121.41 79.3406 121.42 79.2401 121.458 79.1488C121.496 79.0574 121.56 78.9793 121.642 78.9244C121.724 78.8694 121.821 78.8401 121.92 78.8401C122.053 78.8401 122.18 78.8928 122.274 78.9865C122.367 79.0803 122.42 79.2075 122.42 79.3401Z" fill="white"/>
<path d="M70.82 79.26C71.2386 79.3695 71.6495 79.5065 72.05 79.67L72.75 79.99C73.6611 80.4558 74.4971 81.0559 75.23 81.77C75.5922 82.138 75.9264 82.5324 76.23 82.95C76.5755 83.3132 76.9501 83.6477 77.35 83.95C77.882 84.3445 78.4553 84.6798 79.06 84.95C79.6797 85.2339 80.3263 85.455 80.99 85.61V85.61C81.3764 85.6489 81.7603 85.709 82.14 85.79V85.79C83.921 86.1931 85.555 87.0828 86.86 88.36C86.91 88.01 86.94 87.65 86.96 87.29C86.96 87.17 86.96 87.05 86.96 86.93V86.84C86.9618 84.7597 86.3036 82.7325 85.08 81.05C84.7796 80.6423 84.4451 80.2609 84.08 79.91C84.0803 80.199 84.0501 80.4873 83.99 80.77C83.8433 81.4324 83.5415 82.0505 83.1095 82.5737C82.6775 83.0968 82.1276 83.51 81.5049 83.7794C80.8822 84.0488 80.2045 84.1666 79.5274 84.1233C78.8504 84.0799 78.1933 83.8766 77.61 83.53C77.1314 83.2361 76.711 82.8564 76.37 82.41V82.41C75.8196 81.6737 75.5215 80.7793 75.52 79.86V79.86C75.5196 79.042 75.752 78.2408 76.19 77.55C76.3121 77.3594 76.4492 77.1788 76.6 77.01C76.3533 77.01 76.1133 77.03 75.88 77.07C75.0218 77.1764 74.1813 77.395 73.38 77.72C73.03 77.87 72.68 78.03 72.38 78.21C71.9878 78.432 71.6103 78.6792 71.25 78.95C71.1017 79.0463 70.9582 79.1498 70.82 79.26Z" fill="#0A0D27"/>
<path d="M78.18 79.85C78.1975 79.7487 78.2208 79.6485 78.25 79.55C78.2194 79.6476 78.1993 79.7482 78.19 79.85V79.93C78.1916 79.9029 78.1882 79.8758 78.18 79.85V79.85ZM78.37 79.26C78.4486 79.1319 78.539 79.0113 78.64 78.9C78.539 79.0113 78.4486 79.1319 78.37 79.26ZM81.1 78.87C80.7753 78.5488 80.3367 78.3691 79.88 78.37C79.6716 78.369 79.4649 78.4062 79.27 78.48C79.4628 78.3981 79.6705 78.3572 79.88 78.36C80.1069 78.3603 80.3316 78.4055 80.541 78.4931C80.7503 78.5806 80.9403 78.7087 81.1 78.87V78.87Z" fill="#0A0D27"/>
<path d="M75.6 79.8C75.6014 80.7193 75.8995 81.6137 76.45 82.35C76.791 82.7964 77.2113 83.1761 77.69 83.47C78.2737 83.8143 78.9305 84.0158 79.6069 84.0581C80.2833 84.1003 80.9601 83.982 81.5821 83.7129C82.2041 83.4439 82.7536 83.0316 83.186 82.5097C83.6184 81.9879 83.9213 81.3712 84.07 80.71C84.1301 80.4273 84.1602 80.139 84.16 79.85C83.2471 78.9208 82.1574 78.1837 80.9552 77.6822C79.753 77.1807 78.4626 76.925 77.16 76.93H76.73C76.5792 77.0988 76.4421 77.2794 76.32 77.47C75.8607 78.1612 75.6107 78.9702 75.6 79.8V79.8Z" fill="white"/>
<path d="M79.18 79.55C79.18 79.6827 79.2326 79.8098 79.3264 79.9036C79.4202 79.9974 79.5474 80.05 79.68 80.05C79.8126 80.05 79.9398 79.9974 80.0335 79.9036C80.1273 79.8098 80.18 79.6827 80.18 79.55C80.18 79.4174 80.1273 79.2903 80.0335 79.1965C79.9398 79.1027 79.8126 79.05 79.68 79.05C79.5474 79.05 79.4202 79.1027 79.3264 79.1965C79.2326 79.2903 79.18 79.4174 79.18 79.55Z" fill="#0A0D27"/>
<path d="M79.88 78.51C80.223 78.5096 80.5545 78.6343 80.8122 78.8607C81.0699 79.0872 81.2362 79.3998 81.28 79.74C81.2848 79.7832 81.2848 79.8268 81.28 79.87V79.93C81.2804 80.2921 81.1416 80.6406 80.8921 80.9031C80.6426 81.1656 80.3017 81.322 79.94 81.34H79.86C79.505 81.3388 79.1634 81.2046 78.9024 80.964C78.6414 80.7234 78.48 80.3937 78.45 80.04C78.45 80.04 78.45 79.96 78.45 79.92C78.4553 79.5442 78.6082 79.1856 78.8759 78.9217C79.1435 78.6579 79.5042 78.51 79.88 78.51V78.51Z" fill="#0A0D27"/>
<path d="M79.27 79.26C79.27 79.3589 79.2993 79.4556 79.3543 79.5378C79.4092 79.62 79.4873 79.6841 79.5787 79.7219C79.67 79.7598 79.7706 79.7697 79.8676 79.7504C79.9645 79.7311 80.0536 79.6835 80.1236 79.6136C80.1935 79.5436 80.2411 79.4545 80.2604 79.3576C80.2797 79.2606 80.2698 79.16 80.232 79.0687C80.1941 78.9773 80.13 78.8992 80.0478 78.8443C79.9656 78.7893 79.8689 78.76 79.77 78.76C79.6374 78.76 79.5102 78.8127 79.4164 78.9065C79.3227 79.0002 79.27 79.1274 79.27 79.26Z" fill="white"/>
<path d="M111.24 137.85C111.69 137.85 112.13 137.85 112.57 137.78C111.084 139.412 109.273 140.715 107.254 141.607C105.235 142.499 103.052 142.96 100.845 142.96C98.6378 142.96 96.4549 142.499 94.4359 141.607C92.4169 140.715 90.6064 139.412 89.12 137.78C89.56 137.78 90 137.85 90.46 137.85C93.2778 137.853 96.021 136.944 98.28 135.26C96.5384 134.724 94.9276 133.831 93.5502 132.638C92.1728 131.444 91.0591 129.977 90.28 128.33L90.17 128.1C89.4094 126.405 89.0174 124.568 89.02 122.71C89.02 122.48 89.02 122.25 89.02 122.02C89.13 119.87 89.23 118.02 90.79 116.09C91.8118 114.936 93.1742 114.138 94.68 113.81C98.7265 112.903 102.923 112.903 106.97 113.81C108.476 114.138 109.838 114.936 110.86 116.09C112.42 118.09 112.52 119.87 112.63 122.02C112.63 122.25 112.63 122.48 112.63 122.71C112.628 124.567 112.236 126.403 111.48 128.1L111.36 128.33C110.58 129.977 109.467 131.444 108.089 132.637C106.712 133.83 105.101 134.723 103.36 135.26C105.633 136.961 108.401 137.87 111.24 137.85V137.85Z" fill="#0A0D27"/>
<path d="M43.62 146.31L43.31 146.62L43.7 146.42L43.62 146.31Z" fill="white"/>
<path d="M138.61 16.8899C139.863 17.1899 141.093 17.4999 142.3 17.8199C141.829 17.3424 141.236 17.0033 140.585 16.8393C139.934 16.6753 139.251 16.6929 138.61 16.8899V16.8899Z" fill="white"/>
<path d="M198.54 29.07C196.01 27.39 172.85 12.4 137.81 4.58001C117.316 -0.0921669 96.1574 -1.10777 75.31 1.58001C49.9 4.97001 25.64 14.22 3.18997 29.09L0.589966 30.81L0.539978 34.01C0.729726 45.8251 1.98142 57.5991 4.27997 69.19C7.86997 88.1 15.74 116.19 32.83 142.77C34.49 145.35 36.21 147.88 37.92 150.25C38.0186 150.399 38.1254 150.543 38.24 150.68C53.7887 172.267 74.3892 189.715 98.24 201.5L100.54 202.64L102.96 201.73C104.32 201.21 136.55 188.63 163.96 151.18L164.72 150.12C165.65 148.85 166.58 147.5 167.57 146.02C168.14 145.2 168.68 144.37 169.22 143.55L170.01 142.32C189.22 112.32 199.72 75.96 201.2 34.22L201.31 30.95L198.54 29.07ZM42.91 147.07C42.8688 147.026 42.835 146.975 42.81 146.92L43.1 146.75L42.91 147.07ZM43.31 146.67L43.62 146.36L43.7 146.47L43.31 146.67ZM170 117.94C169.16 119.71 168.22 121.57 167.07 123.77C166.4 125.02 165.73 126.26 165.07 127.46L164.57 128.34C164.21 128.97 163.85 129.61 163.47 130.25L163.4 130.37L161.67 133.27L161.21 134C160.57 135 159.93 136 159.27 137L158.77 137.77C157.44 139.77 156.06 141.77 154.68 143.67L154.37 144.1C133.22 173.09 108.73 186.07 101.04 189.64C79.8909 178.725 61.6236 162.963 47.73 143.64L47.28 142.99C45.76 140.87 44.28 138.65 42.79 136.38C42.11 135.32 41.45 134.26 40.79 133.18L40.33 132.43C39.84 131.62 39.33 130.81 38.88 129.99L38.82 129.88C38.35 129.07 37.89 128.26 37.43 127.44C37.26 127.13 37.09 126.83 36.93 126.52C15.93 88.44 12.88 49.24 12.44 37.17C49.7 13.43 90.9 6.33001 134.92 16.06C136.18 16.34 137.42 16.63 138.64 16.93C139.281 16.7329 139.964 16.7154 140.615 16.8794C141.265 17.0434 141.859 17.3825 142.33 17.86C158.766 22.1569 174.543 28.6629 189.23 37.2C187.73 67.26 181.28 94.44 170 117.94Z" fill="white"/>
<path d="M42.81 146.87C42.835 146.925 42.8688 146.976 42.91 147.02L43.1 146.7L42.81 146.87ZM42.81 146.87C42.835 146.925 42.8688 146.976 42.91 147.02L43.1 146.7L42.81 146.87ZM42.81 146.87C42.835 146.925 42.8688 146.976 42.91 147.02L43.1 146.7L42.81 146.87Z" fill="white"/>
</svg>
